HIERARCHY
	ROOT pelvis
	{
		OFFSET 0 0 0 
		CHANNELS 6 Xposition Yposition Zposition Zrotation Xrotation Yrotation
		JOINT lfemur_phantom
		{
			OFFSET 0 0.0899607 0 
			CHANNELS 3 Zrotation Xrotation Yrotation
			JOINT lfemur
			{
				OFFSET 0 0 -0.426035 
				CHANNELS 3 Zrotation Xrotation Yrotation
				JOINT ltibia
				{
					OFFSET 0 0 -0.409933 
					CHANNELS 3 Zrotation Xrotation Yrotation
					JOINT lfoot
					{
						OFFSET 0.105631 0 0.00135511 
						CHANNELS 3 Zrotation Xrotation Yrotation
						End Site
						{
							OFFSET 0.0352103 0 0.000451703
						}
					}
				}
			}
		}
		JOINT rfemur_phantom
		{
			OFFSET 0 -0.0899607 0 
			CHANNELS 3 Zrotation Xrotation Yrotation
			JOINT rfemur
			{
				OFFSET 0 0 -0.430137 
				CHANNELS 3 Zrotation Xrotation Yrotation
				JOINT rtibia
				{
					OFFSET 0 0 -0.390377 
					CHANNELS 3 Zrotation Xrotation Yrotation
					JOINT rfoot
					{
						OFFSET 0.106801 0 -0.00121178 
						CHANNELS 3 Zrotation Xrotation Yrotation
						End Site
						{
							OFFSET 0.0356003 0 -0.000403927
						}
					}
				}
			}
		}
		JOINT lowerback_phantom
		{
			OFFSET -0.05 0 0.107967 
			CHANNELS 3 Zrotation Xrotation Yrotation
			JOINT lowerback
			{
				OFFSET 0.0167886 0 0.161801 
				CHANNELS 3 Zrotation Xrotation Yrotation
				JOINT upperback
				{
					OFFSET 0 0 0 
					CHANNELS 3 Zrotation Xrotation Yrotation
					JOINT lclavicle_phantom
					{
						OFFSET 0 0 0.199349 
						CHANNELS 3 Zrotation Xrotation Yrotation
						JOINT lclavicle
						{
							OFFSET 0 0.164108 -0.0174105 
							CHANNELS 3 Zrotation Xrotation Yrotation
							JOINT lhumerus
							{
								OFFSET 0 0 -0.275026 
								CHANNELS 3 Zrotation Xrotation Yrotation
								JOINT lradius
								{
									OFFSET 0 0 -0.248775 
									CHANNELS 3 Zrotation Xrotation Yrotation
									End Site
									{
										OFFSET 0 0 -0.082925
									}
								}
							}
						}
					}
					JOINT rclavicle_phantom
					{
						OFFSET 0 0 0.199349 
						CHANNELS 3 Zrotation Xrotation Yrotation
						JOINT rclavicle
						{
							OFFSET 0 -0.165322 -0.0298984 
							CHANNELS 3 Zrotation Xrotation Yrotation
							JOINT rhumerus
							{
								OFFSET 0 0 -0.273337 
								CHANNELS 3 Zrotation Xrotation Yrotation
								JOINT rradius
								{
									OFFSET 0 0 -0.254845 
									CHANNELS 3 Zrotation Xrotation Yrotation
									End Site
									{
										OFFSET 0 0 -0.0849483
									}
								}
							}
						}
					}
					JOINT LowerNeck_phantom
					{
						OFFSET 0 0 0.199349 
						CHANNELS 3 Zrotation Xrotation Yrotation
						JOINT LowerNeck
						{
							OFFSET -0.0127292 -0.000602123 0.105365 
							CHANNELS 3 Zrotation Xrotation Yrotation
							End Site
							{
								OFFSET -0.00424307 -0.000200708 0.0351217
							}
						}
					}
				}
			}
		}
	}
MOTION
Frames:	11
Frame Time:	0.0166667
-0.0229379 0.888549 -0.05172 86.0414 -66.2004 90.5807 26.924 -1.18566 -10.6403 18.353 7.64976 21.8639 -5.42418 -12.8213 21.8344 -3.0633e-006 -2.24572e-006 -2.77248 -15.1917 -8.06928 -15.9142 -20.038 -10.1928 25.8824 4.56379 8.37069 16.2634 -1.55988e-006 -1.62245e-007 24.4307 0.110125 -0.00597681 7.55149 0.531943 1.65315 3.81904 -0 0 -0 -1.12769 -6.18524 -0.121513 3.60963 20.7472 -5.76081 -5.97104 -8.06893 -126.692 3.3802e-006 1.54802 -16.1987 -0.924274 1.38459 0.0223402 28.8541 -31.5121 -12.7024 11.3326 16.4269 -125.325 -2.13086e-006 -4.37421 -6.25185 -0.16113 4.79639 36.6388 30.6054 -36.8347 -59.4292 
-0.0231177 0.890249 -0.051007 85.7735 -66.7111 90.4014 27.45 -1.13426 -10.3961 17.9206 7.28277 21.4049 -5.40402 -13.259 22.5859 -1.60704e-006 -1.69587e-006 -2.75432 -14.5508 -7.98797 -16.3572 -19.5145 -10.0697 26.2595 4.00529 7.32206 16.2154 -8.22966e-007 -1.04101e-006 25.5403 0.266143 0.0300461 7.27199 0.863089 1.64906 3.83735 -0 0 -0 -0.7025 -6.27527 -0.0767869 3.04064 20.999 -4.90877 -6.35966 -8.55517 -126.841 -2.10591e-007 1.24601 -16.3949 -0.864774 1.12784 0.0170239 29.7253 -31.0172 -11.8254 11.3358 16.3237 -125.499 8.63151e-006 -3.40237 -6.76033 0.0703723 4.5445 36.6827 30.407 -36.8711 -59.5803 
-0.0233518 0.891074 -0.04999 85.4124 -67.0325 90.0293 27.7835 -1.11829 -10.2677 17.6793 7.13275 21.2838 -5.39332 -13.5671 23.0772 -9.21764e-006 1.1396e-006 -2.7479 -14.0914 -7.9624 -16.6685 -18.656 -9.77659 26.6999 3.47923 6.16555 15.4863 -2.40729e-006 -1.01696e-006 26.4768 0.298182 -0.018272 7.09263 1.0813 1.66629 3.86344 -0 0 -0 -0.457091 -6.29681 -0.0501336 2.78494 21.4426 -4.17315 -6.58526 -8.81974 -126.977 -3.11431e-006 1.00311 -16.557 -0.72691 0.859364 0.010902 30.491 -30.6237 -11.1645 11.2044 16.1241 -125.499 1.29054e-005 -2.5965 -7.24233 0.297475 4.2796 36.7828 30.2486 -36.9757 -59.8378 
-0.0236261 0.890868 -0.04858 84.9286 -67.1678 89.4491 28.0177 -1.15195 -10.3136 17.5726 7.20477 21.6044 -5.40112 -13.7242 23.2719 1.60109e-005 -3.44884e-006 -2.84071 -13.6223 -8.01377 -16.8137 -17.6767 -9.40857 27.1555 3.07856 5.139 14.0177 2.29729e-006 -1.4618e-006 26.9351 0.283686 -0.140807 7.0137 1.17901 1.66406 3.89457 -0 0 -0 -0.429552 -6.22997 -0.0466156 2.81038 22.0442 -3.56211 -6.66449 -8.89478 -127.078 4.04519e-008 0.945243 -16.6879 -0.562001 0.617122 0.00605585 31.1473 -30.3604 -10.7295 11.0656 15.9933 -125.367 -2.0215e-005 -2.02052 -7.54815 0.425729 3.99583 36.8902 30.2255 -37.0992 -60.1406 
-0.023914 0.889556 -0.046696 84.3306 -67.1339 88.7075 28.1899 -1.22452 -10.6054 17.4588 7.46764 22.4522 -5.43696 -13.7489 23.1754 1.69064e-005 -5.87039e-006 -3.03101 -12.9622 -8.1519 -16.8074 -16.7772 -9.06787 27.5988 3.06382 4.77201 12.2429 -1.50876e-006 -1.83689e-007 26.7531 0.262204 -0.304342 7.01391 1.19586 1.60453 3.93211 -0 0 -0 -0.620798 -6.08841 -0.0658464 3.07325 22.7713 -3.11878 -6.67856 -8.89932 -127.123 1.4081e-006 1.0876 -16.7725 -0.418755 0.441606 0.00322738 31.7077 -30.2745 -10.4985 10.9648 15.9698 -125.153 1.172e-005 -1.84751 -7.68795 0.42847 3.75379 36.9444 30.3102 -37.2333 -60.4173 
-0.024156 0.887091 -0.044258 83.6986 -66.9275 87.9067 28.2093 -1.28852 -11.1791 17.2253 7.87333 23.8373 -5.50182 -13.6659 22.8198 7.54107e-006 -4.21699e-006 -3.35732 -12.1508 -8.31185 -16.684 -15.6956 -8.63571 28.1174 3.22431 4.7435 10.7362 -8.61851e-008 -3.50527e-007 25.9989 0.218157 -0.484236 7.08284 1.18497 1.51573 3.96324 -0 0 -0 -1.00511 -5.92966 -0.103848 3.52599 23.6105 -2.88777 -6.75981 -9.01585 -127.103 3.64335e-006 1.33082 -16.8164 -0.301116 0.341082 0.00179239 32.1292 -30.378 -10.4344 10.9195 16.0336 -124.934 -1.75464e-006 -2.04993 -7.71144 0.323529 3.54391 36.9794 30.3918 -37.3861 -60.7558 
-0.0242417 0.883336 -0.041362 83.0015 -66.5371 87.0137 28.0541 -1.33386 -11.9531 16.7106 8.29842 25.6759 -5.57153 -13.434 22.2233 1.81299e-005 -5.11644e-006 -3.86198 -11.4335 -8.50694 -16.5593 -14.6997 -8.32261 28.8879 3.16108 4.44736 9.54098 -1.28188e-007 1.10051e-006 25.1523 0.13768 -0.72185 7.23059 1.17553 1.43962 3.98236 -0 0 -0 -1.54635 -5.79665 -0.156218 4.15066 24.5369 -2.92152 -6.9356 -9.2762 -127.04 2.59405e-006 1.55782 -16.7887 -0.18915 0.315903 0.00104291 32.3426 -30.6621 -10.508 10.9205 16.1231 -124.791 2.40774e-006 -2.45852 -7.66833 0.142741 3.37571 37.0674 30.3658 -37.5969 -61.2771 
-0.0240616 0.878162 -0.038233 82.078 -65.9702 85.8627 27.8433 -1.41325 -12.7455 15.7696 8.57023 27.8205 -5.60482 -12.9442 21.3417 -6.0125e-006 -6.28239e-007 -4.52892 -11.0421 -8.84391 -16.5857 -14.4509 -8.58042 30.0687 2.87789 3.85689 8.22696 -3.20799e-007 -7.41777e-007 24.7354 0.0361583 -1.11588 7.47004 1.16092 1.41122 3.98799 -0 0 -0 -2.19676 -5.72018 -0.219052 4.95653 25.5288 -3.25321 -7.10044 -9.52071 -126.983 -5.47471e-006 1.72199 -16.6448 -0.0646081 0.361063 0.000410361 32.3414 -31.1247 -10.7016 10.9693 16.2157 -124.764 3.69038e-006 -2.9269 -7.58733 -0.0665404 3.23078 37.2542 30.1804 -37.8471 -62.0622 
-0.0235298 0.871882 -0.034855 81.049 -65.248 84.5614 27.7113 -1.49148 -13.4523 14.461 8.58963 30.077 -5.58483 -12.2169 20.1991 1.03844e-005 -5.40678e-006 -5.29292 -10.9576 -9.24263 -16.7109 -14.8683 -9.34641 31.4549 2.61277 3.29945 6.59022 1.09654e-006 1.12175e-006 24.6769 -0.0793225 -1.62059 7.78711 1.14369 1.41752 4.01134 -0 0 -0 -2.85703 -5.72898 -0.285431 5.94066 26.5622 -3.95775 -7.09161 -9.51529 -126.964 4.73925e-006 1.74447 -16.3387 0.0186464 0.477136 -0.000154187 32.2002 -31.7839 -11.0403 11.0882 16.3582 -124.832 -3.24973e-007 -3.37831 -7.48188 -0.265349 3.15154 37.3925 29.9249 -38.0742 -62.8371 
-0.0226965 0.865093 -0.031071 80.2351 -64.3686 83.4065 27.7012 -1.48426 -14.1144 13.031 8.41962 32.32 -5.51247 -11.3491 18.8756 -5.64059e-006 -2.48743e-006 -5.87976 -11.2444 -9.48896 -16.8764 -15.0234 -10.0266 32.9719 2.20383 2.59563 4.64328 9.44283e-007 -6.19925e-007 24.6048 -0.263062 -2.07222 8.19329 1.1015 1.41436 4.05485 -0 0 -0 -3.3462 -5.86432 -0.342273 7.00807 27.61 -5.08478 -6.95346 -9.32309 -126.974 -2.49365e-006 1.61475 -15.9444 -0.0141442 0.682091 0.00017156 32.0676 -32.6792 -11.5516 11.2633 16.5733 -124.923 1.34837e-005 -3.78014 -7.32154 -0.440014 3.10118 37.2885 29.8382 -38.1946 -63.267 
-0.0218517 0.858562 -0.026913 79.8589 -63.3457 82.6584 27.7558 -1.38091 -14.7983 11.7507 8.17648 34.3612 -5.36284 -10.4019 17.529 -2.5971e-006 3.01888e-006 -6.12041 -11.8874 -9.49962 -17.2294 -14.5367 -10.3864 34.8099 1.39007 1.53631 2.85185 -2.92322e-007 9.95251e-007 24.1743 -0.549042 -2.34207 8.71723 0.958425 1.37381 4.04991 -0 0 -0 -3.4822 -6.13307 -0.37248 8.02753 28.5691 -6.59273 -6.87788 -9.22539 -126.957 4.7258e-007 1.37283 -15.563 -0.167607 1.00862 0.00295452 32.0966 -33.8127 -12.1966 11.2846 16.6155 -124.908 -4.17429e-006 -4.13554 -7.07082 -0.49936 3.02312 36.8989 29.9985 -38.2044 -63.2916 
